<svg width="157" height="44" viewBox="0 0 157 44" fill="none" xmlns="http://www.w3.org/2000/svg">
<path d="M5.86085 13.6445C7.07214 13.6445 8.26864 13.9128 9.36575 14.4304C10.4629 14.948 11.4338 15.7024 12.2099 16.6401C13.1108 14.8595 14.4462 13.3394 16.0904 12.2228C17.7346 11.1061 19.6336 10.4297 21.6086 10.2573C23.5836 10.0848 25.5696 10.4219 27.3798 11.2368C29.1899 12.0517 30.7646 13.3177 31.9557 14.9156C32.7847 15.9331 33.9713 16.5887 35.268 16.7457C36.5647 16.9026 37.8715 16.5487 38.9157 15.7578C39.96 14.967 40.6612 13.8001 40.873 12.5007C41.0849 11.2013 40.791 9.86953 40.0528 8.78321C38.0151 6.06219 35.3807 3.85342 32.3557 2.3297C29.3306 0.805981 25.9969 0.00862185 22.6154 0C13.1683 0 5.10615 6.08683 2.07812 14.5746C3.24719 13.9642 4.54434 13.6452 5.86085 13.6445Z" fill="url(#paint0_linear_877_2981)"/>
<path d="M39.0465 28.07C37.9722 27.2559 36.6212 26.9054 35.2906 27.0955C33.96 27.2856 32.7588 28.0007 31.9511 29.0837C30.7599 30.6808 29.1855 31.946 27.3758 32.7605C25.5661 33.575 23.5806 33.9119 21.6062 33.7395C19.6318 33.5671 17.7334 32.8911 16.0894 31.7751C14.4455 30.6592 13.1102 29.1399 12.209 27.3602C11.0061 28.8163 9.34631 29.8148 7.50413 30.1906C5.66195 30.5663 3.74775 30.2968 2.07812 29.4266C5.10615 37.9134 13.1674 43.9993 22.6145 43.9993C25.9957 43.9911 29.3292 43.1943 32.3542 41.6712C35.3792 40.1482 38.0138 37.9401 40.0519 35.2198C40.8578 34.1369 41.2046 32.7757 41.0161 31.4352C40.8276 30.0947 40.1193 28.8844 39.0465 28.07Z" fill="url(#paint1_linear_877_2981)"/>
<path d="M27.677 21.8001C27.7205 22.9073 27.4054 23.9987 26.7794 24.9095C26.1533 25.8202 25.2503 26.5007 24.2068 26.8483C23.1633 27.1958 22.0359 27.1915 20.9951 26.8359C19.9542 26.4804 19.0564 25.7929 18.4372 24.8774C17.6309 23.6937 16.3463 22.9262 14.919 22.9262H14.6158C13.8703 22.9228 13.1367 23.1148 12.4869 23.4834C11.8372 23.852 11.2936 24.3846 10.9095 25.0288C10.2933 26.0775 9.37114 26.9088 8.2689 27.4092C7.16665 27.9097 5.93808 28.0549 4.75092 27.8251C3.56376 27.5953 2.47587 27.0017 1.6358 26.1252C0.795731 25.2488 0.244417 24.1322 0.0571346 22.9281C-0.0257996 22.4914 -0.0119773 21.6561 0.0571346 21.0698C0.245575 19.8664 0.797397 18.751 1.6374 17.8754C2.47741 16.9998 3.56474 16.4066 4.75122 16.1767C5.9377 15.9469 7.16563 16.0914 8.26766 16.5908C9.36969 17.0901 10.2922 17.9199 10.9095 18.9671C11.2936 19.6114 11.8372 20.1439 12.4869 20.5125C13.1367 20.8812 13.8703 21.0732 14.6158 21.0698H14.8268C15.542 21.0648 16.2452 20.8837 16.8752 20.5424C17.5052 20.201 18.043 19.7097 18.4418 19.1111C18.9454 18.3688 19.6349 17.7741 20.4403 17.3875C21.2457 17.0008 22.1382 16.8361 23.0272 16.91C25.5502 17.1107 27.5812 19.2514 27.677 21.8001Z" fill="url(#paint2_linear_877_2981)"/>
<path d="M2.07812 14.5739C3.74822 13.702 5.66359 13.4315 7.50702 13.8071C9.35044 14.1827 11.0113 15.182 12.2145 16.6394C13.1154 14.8589 14.4508 13.3388 16.095 12.2221C17.7392 11.1055 19.6382 10.4291 21.6132 10.2566C23.5882 10.0842 25.5742 10.4212 27.3844 11.2362C29.1945 12.0511 30.7692 13.3171 31.9603 14.9149C22.5915 2.24605 6.78511 4.34871 2.07812 14.5739Z" fill="url(#paint3_linear_877_2981)"/>
<path d="M2.07812 29.4268C3.74769 30.297 5.66178 30.5665 7.50391 30.191C9.34604 29.8154 11.0059 28.8172 12.209 27.3613C13.1104 29.1416 14.4462 30.6613 16.0908 31.7774C17.7353 32.8936 19.6344 33.5695 21.6094 33.7415C23.5845 33.9135 25.5704 33.576 27.3804 32.7607C29.1904 31.9454 30.7649 30.6792 31.9557 29.0812C22.5905 41.7538 6.78419 39.6521 2.07812 29.4268Z" fill="url(#paint4_linear_877_2981)"/>
<path d="M57.4961 22C57.4961 19.9346 57.849 18.0523 58.5549 16.3529C59.2608 14.6275 60.2412 13.1503 61.4961 11.9216C62.751 10.6667 64.215 9.69935 65.8883 9.01961C67.5876 8.33987 69.4177 8 71.3784 8C74.202 8 76.6987 8.67974 78.8686 10.0392C81.0647 11.3725 82.7118 13.2941 83.8098 15.8039L79.3784 17.098C78.8033 16 78.0843 15.1111 77.2216 14.4314C76.385 13.7516 75.4699 13.2549 74.4765 12.9412C73.483 12.6274 72.4765 12.4706 71.4569 12.4706C69.7837 12.4706 68.2935 12.8758 66.9863 13.6863C65.6791 14.4706 64.6595 15.5817 63.9275 17.0196C63.2216 18.4575 62.8686 20.1176 62.8686 22C62.8686 23.8824 63.2216 25.5425 63.9275 26.9804C64.6595 28.3922 65.6791 29.5033 66.9863 30.3137C68.2935 31.1242 69.7837 31.5294 71.4569 31.5294C72.5026 31.5294 73.5353 31.3725 74.5549 31.0588C75.6007 30.719 76.568 30.1569 77.4569 29.3725C78.3458 28.5882 79.1039 27.5425 79.7314 26.2353L84.0843 27.451C82.9601 30.3007 81.2869 32.4444 79.0647 33.8824C76.8425 35.2941 74.2804 36 71.3784 36C69.4177 36 67.5876 35.6601 65.8883 34.9804C64.215 34.3007 62.751 33.3333 61.4961 32.0784C60.2412 30.8235 59.2608 29.3464 58.5549 27.6471C57.849 25.9216 57.4961 24.0392 57.4961 22Z" fill="#1F1F1F"/>
<path d="M88.274 16.1176H92.823L93.1759 18.6275C93.725 17.9477 94.3393 17.3987 95.0191 16.9804C95.725 16.5359 96.4962 16.2353 97.3328 16.0784C98.1694 15.8954 99.0452 15.9085 99.9602 16.1176V20.8235C99.2544 20.5882 98.5093 20.5229 97.725 20.6275C96.9668 20.732 96.2478 21.0065 95.5681 21.451C94.9145 21.8954 94.3655 22.5359 93.921 23.3725C93.5027 24.183 93.2936 25.2157 93.2936 26.4706V35.7255H88.274V16.1176Z" fill="#1F1F1F"/>
<path d="M111.69 36C109.73 36 108.004 35.5686 106.514 34.7059C105.024 33.8431 103.86 32.6405 103.024 31.098C102.213 29.5556 101.808 27.7778 101.808 25.7647C101.808 23.8301 102.213 22.1176 103.024 20.6275C103.834 19.1373 104.958 17.9739 106.396 17.1373C107.86 16.2745 109.52 15.8431 111.377 15.8431C113.259 15.8431 114.919 16.2484 116.357 17.0588C117.795 17.8693 118.906 19.0065 119.69 20.4706C120.501 21.9085 120.906 23.5948 120.906 25.5294C120.906 25.817 120.88 26.1438 120.828 26.5098C120.801 26.8497 120.762 27.2157 120.71 27.6078H107.22C107.324 28.4444 107.586 29.1634 108.004 29.7647C108.449 30.3399 108.984 30.7974 109.612 31.1373C110.265 31.451 110.998 31.6078 111.808 31.6078C112.775 31.6078 113.638 31.4118 114.396 31.0196C115.181 30.6013 115.743 30.0654 116.082 29.4118L120.553 30.7451C119.769 32.4183 118.592 33.7124 117.024 34.6275C115.481 35.5425 113.703 36 111.69 36ZM115.416 23.9608C115.39 23.2288 115.194 22.5752 114.828 22C114.462 21.3987 113.978 20.9412 113.377 20.6275C112.775 20.2876 112.109 20.1176 111.377 20.1176C110.723 20.1176 110.109 20.2876 109.533 20.6275C108.958 20.9673 108.462 21.4248 108.043 22C107.651 22.549 107.39 23.2026 107.259 23.9608H115.416Z" fill="#1F1F1F"/>
<path d="M125.723 16.1176V10.6274H130.821V16.1176H135.135V20.549H130.821V28.5098C130.821 29.5294 131.03 30.2484 131.448 30.6667C131.893 31.085 132.442 31.3072 133.095 31.3333C133.775 31.3595 134.455 31.3203 135.135 31.2157V35.5294C133.932 35.7908 132.755 35.8693 131.605 35.7647C130.481 35.6601 129.474 35.3595 128.586 34.8627C127.697 34.3399 126.991 33.5556 126.468 32.5098C125.971 31.4641 125.723 30.1307 125.723 28.5098V20.549H122.938V16.1176H125.723Z" fill="#1F1F1F"/>
<path d="M147.613 36C145.652 36 143.926 35.5686 142.436 34.7059C140.946 33.8431 139.782 32.6405 138.946 31.098C138.135 29.5556 137.73 27.7778 137.73 25.7647C137.73 23.8301 138.135 22.1176 138.946 20.6275C139.756 19.1373 140.88 17.9739 142.318 17.1373C143.782 16.2745 145.443 15.8431 147.299 15.8431C149.181 15.8431 150.841 16.2484 152.279 17.0588C153.717 17.8693 154.828 19.0065 155.613 20.4706C156.423 21.9085 156.828 23.5948 156.828 25.5294C156.828 25.817 156.802 26.1438 156.75 26.5098C156.724 26.8497 156.684 27.2157 156.632 27.6078H143.142C143.246 28.4444 143.508 29.1634 143.926 29.7647C144.371 30.3399 144.907 30.7974 145.534 31.1373C146.188 31.451 146.92 31.6078 147.73 31.6078C148.697 31.6078 149.56 31.4118 150.318 31.0196C151.103 30.6013 151.665 30.0654 152.005 29.4118L156.475 30.7451C155.691 32.4183 154.514 33.7124 152.946 34.6275C151.403 35.5425 149.626 36 147.613 36ZM151.338 23.9608C151.312 23.2288 151.116 22.5752 150.75 22C150.384 21.3987 149.9 20.9412 149.299 20.6275C148.697 20.2876 148.031 20.1176 147.299 20.1176C146.645 20.1176 146.031 20.2876 145.456 20.6275C144.88 20.9673 144.384 21.4248 143.965 22C143.573 22.549 143.312 23.2026 143.181 23.9608H151.338Z" fill="#1F1F1F"/>
<defs>
<linearGradient id="paint0_linear_877_2981" x1="40.3357" y1="8.47752" x2="-3.33564" y2="8.47752" gradientUnits="userSpaceOnUse">
<stop stop-color="#66D1E7"/>
<stop offset="1" stop-color="#4329CD"/>
</linearGradient>
<linearGradient id="paint1_linear_877_2981" x1="40.3348" y1="35.5218" x2="-3.33656" y2="35.5218" gradientUnits="userSpaceOnUse">
<stop stop-color="#66D1E7"/>
<stop offset="1" stop-color="#4329CD"/>
</linearGradient>
<linearGradient id="paint2_linear_877_2981" x1="-0.0967542" y1="14.7181" x2="30.1728" y2="30.8216" gradientUnits="userSpaceOnUse">
<stop stop-color="#66D1E7"/>
<stop offset="1" stop-color="#4329CD"/>
</linearGradient>
<linearGradient id="paint3_linear_877_2981" x1="5.38536" y1="35.1285" x2="19.401" y2="10.9082" gradientUnits="userSpaceOnUse">
<stop stop-color="#66D1E7"/>
<stop offset="1" stop-color="#2F22B2"/>
</linearGradient>
<linearGradient id="paint4_linear_877_2981" x1="5.38444" y1="8.87134" x2="19.4001" y2="33.0916" gradientUnits="userSpaceOnUse">
<stop stop-color="#66D1E7"/>
<stop offset="1" stop-color="#2F22B2"/>
</linearGradient>
</defs>
</svg>
